<?xml version="1.0" standalone="no"?>
<!DOCTYPE svg PUBLIC "-//W3C//DTD SVG 20010904//EN"
 "http://www.w3.org/TR/2001/REC-SVG-20010904/DTD/svg10.dtd">
<svg version="1.0" xmlns="http://www.w3.org/2000/svg"
 width="738.000000pt" height="738.000000pt" viewBox="0 0 738.000000 738.000000"
 preserveAspectRatio="xMidYMid meet">
<metadata>
Created by potrace 1.14, written by Peter Selinger 2001-2017
</metadata>
<g transform="translate(0.000000,738.000000) scale(0.100000,-0.100000)"
fill="#000000" stroke="none">
<path d="M3558 7158 c-503 -36 -1026 -259 -1403 -598 -425 -382 -687 -868
-781 -1445 -28 -172 -25 -536 5 -715 75 -439 248 -831 505 -1138 94 -112 330
-341 426 -413 419 -313 931 -481 1444 -474 196 3 289 11 426 37 58 11 110 21
115 22 6 2 24 6 40 10 566 142 1076 503 1405 994 186 279 340 671 375 961 4
30 9 63 12 75 3 12 7 129 9 261 2 174 -1 270 -11 347 -50 362 -182 710 -385
1015 -43 65 -87 127 -97 138 -10 11 -36 43 -57 70 -74 94 -264 274 -388 367
-310 235 -647 385 -1017 454 -168 31 -442 45 -623 32z"/>
<path d="M984 5219 c-18 -5 -48 -27 -68 -49 -42 -46 -38 2 -37 -533 0 -285 1
-301 22 -343 26 -54 61 -74 129 -74 79 0 123 32 137 99 5 20 8 205 8 411 0
284 -3 384 -13 412 -22 62 -103 97 -178 77z"/>
<path d="M6368 5209 c-20 -10 -46 -34 -57 -53 -21 -34 -22 -44 -22 -435 0
-442 0 -440 63 -479 97 -60 212 -12 229 95 4 26 7 212 5 413 -1 310 -4 370
-18 401 -28 64 -131 93 -200 58z"/>
<path d="M2217 2324 c-1 -1 -38 -5 -82 -9 -221 -18 -495 -107 -680 -218 -126
-77 -287 -228 -396 -372 -69 -92 -174 -299 -217 -430 -41 -121 -80 -301 -96
-438 -15 -132 -19 -504 -5 -596 13 -90 48 -148 97 -158 20 -4 1331 -8 2913 -8
2372 0 2880 2 2901 13 65 35 86 154 82 457 -2 210 -6 257 -30 445 -43 339
-132 537 -354 791 -74 84 -114 125 -180 180 -251 211 -591 329 -992 346 l-146
6 -134 -85 c-213 -135 -289 -179 -475 -272 -62 -31 -118 -56 -125 -56 -8 0
-18 -4 -24 -9 -20 -19 -234 -80 -339 -96 -139 -22 -357 -16 -490 14 -238 52
-511 182 -857 407 l-129 85 -120 2 c-66 2 -121 2 -122 1z"/>
</g>
</svg>
